<svg width="16" height="16" viewBox="0 0 16 16" fill="none" xmlns="http://www.w3.org/2000/svg">
<path d="M7.64936 12.7414C6.44936 13.3133 5.076 13.6747 3.58536 13.3174C2.09472 12.96 1.03864 12.0133 1.22 10.2506C1.40136 8.488 3.28264 7.88936 4.82936 7.88936C6.37608 7.88936 9.31064 8.89208 9.31064 8.89208C9.31064 8.89208 9.55736 8.34008 9.79736 7.70808C9.93861 7.34014 10.0414 6.95856 10.104 6.56944H3.85472V5.9428H6.89072V4.7428L3.10672 4.76944V3.9828H6.89072V2.18536H8.87736V3.98136H12.9333V4.77072L8.87736 4.8V5.916L12.2267 5.94264C12.2267 5.94264 12.1667 6.56928 11.7414 7.708C11.5314 8.3099 11.2555 8.88673 10.9187 9.428L16 11.0947V3.2C16 1.43272 14.5674 0 12.8 0H3.2C1.43272 0 0 1.43272 0 3.2V12.8C0 14.5674 1.43272 16 3.2 16H12.8C14.2392 15.9989 15.5006 15.037 15.8826 13.6494L10.016 10.8706C10.016 10.8706 8.84128 12.1694 7.644 12.7374L7.64936 12.7414Z" fill="#108EE9"/>
<path d="M4.17854 8.8544C2.3119 8.97296 1.85718 9.78768 1.85718 10.5491C1.85718 11.3104 2.31718 12.3544 4.51054 12.3544C6.7039 12.3544 8.56118 10.1437 8.56118 10.1437C8.56118 10.1437 6.04254 8.73568 4.17854 8.8544Z" fill="#108EE9"/>
</svg>
