<svg width="11" height="12" viewBox="0 0 11 12" fill="none" xmlns="http://www.w3.org/2000/svg">
<path d="M6.14645 2.52077C5.96894 2.34326 5.9528 2.06548 6.09803 1.86974L6.14645 1.81366L7.72473 0.23359C7.80852 0.0946719 7.97527 0 8.16728 0C8.33534 0 8.48403 0.0725746 8.57466 0.183854L8.60984 0.233817L10.188 1.81366L10.2364 1.86974C10.3655 2.04373 10.3671 2.28254 10.2412 2.45813L10.188 2.52077L10.1319 2.56918C9.95791 2.69828 9.7191 2.69987 9.54351 2.57396L9.48088 2.52077L8.66667 1.70667V4.22922L8.6621 4.28859C8.62896 4.50213 8.41974 4.66667 8.1666 4.66667C7.91347 4.66667 7.7043 4.50203 7.67122 4.28848L7.66667 4.22911V1.70667L6.85355 2.52077L6.79747 2.56918C6.60173 2.71442 6.32396 2.69828 6.14645 2.52077ZM6.14839 9.47923C6.3259 9.30172 6.60368 9.28558 6.79942 9.43082L6.8555 9.47923L7.66861 10.2933V7.77089C7.66858 7.52926 7.89241 7.33333 8.16855 7.33333C8.42168 7.33333 8.6309 7.49787 8.66404 7.71141L8.66861 7.77078V10.2933L9.48282 9.47923C9.66033 9.30172 9.93811 9.28558 10.1338 9.43082L10.1899 9.47923C10.3674 9.65674 10.3836 9.93452 10.2383 10.1303L10.1899 10.1863L8.61178 11.7662C8.52806 11.9052 8.36129 12 8.16922 12C7.97721 12 7.81047 11.9053 7.72668 11.7664L6.14839 10.1863C5.95313 9.99108 5.95313 9.6745 6.14839 9.47923ZM1.5 0.661458C0.671573 0.661458 0 1.33303 0 2.16146V9.82812C0 10.6566 0.671573 11.3281 1.5 11.3281H4.16667C4.44281 11.3281 4.66667 11.1043 4.66667 10.8281C4.66667 10.552 4.44281 10.3281 4.16667 10.3281H1.5C1.22386 10.3281 1 10.1043 1 9.82812V2.16146C1 1.88532 1.22386 1.66146 1.5 1.66146H4.16667C4.44281 1.66146 4.66667 1.4376 4.66667 1.16146C4.66667 0.885316 4.44281 0.661458 4.16667 0.661458H1.5Z" fill="black"/>
</svg>
